<mxfile host="app.diagrams.net" modified="2021-12-08T06:47:04.832Z" agent="5.0 (Windows NT 11.0; Win64) AppleWebKit/537.36 (KHTML, like Gecko) Chrome/95.0.4665.182 Safari/537.36" etag="mC505pM_fvIwXQ6DnXKZ" version="15.9.1" type="github">
  <diagram id="MMChSM-Z4eTEDMRwFmqV" name="第 1 页">
    <mxGraphModel dx="942" dy="546" grid="1" gridSize="10" guides="1" tooltips="1" connect="1" arrows="1" fold="1" page="1" pageScale="1" pageWidth="827" pageHeight="1169" math="0" shadow="0">
      <root>
        <mxCell id="0" />
        <mxCell id="1" parent="0" />
        <mxCell id="5o1GbZZzDzNnB3p3QDpV-1" value="" style="rounded=0;whiteSpace=wrap;html=1;" vertex="1" parent="1">
          <mxGeometry x="200" y="540" width="350" height="50" as="geometry" />
        </mxCell>
        <mxCell id="5o1GbZZzDzNnB3p3QDpV-4" value="" style="rounded=0;whiteSpace=wrap;html=1;" vertex="1" parent="1">
          <mxGeometry x="200" y="540" width="50" height="50" as="geometry" />
        </mxCell>
        <mxCell id="5o1GbZZzDzNnB3p3QDpV-9" value="" style="rounded=0;whiteSpace=wrap;html=1;" vertex="1" parent="1">
          <mxGeometry x="250" y="540" width="50" height="50" as="geometry" />
        </mxCell>
        <mxCell id="5o1GbZZzDzNnB3p3QDpV-10" value="" style="rounded=0;whiteSpace=wrap;html=1;" vertex="1" parent="1">
          <mxGeometry x="300" y="540" width="50" height="50" as="geometry" />
        </mxCell>
        <mxCell id="5o1GbZZzDzNnB3p3QDpV-11" value="" style="rounded=0;whiteSpace=wrap;html=1;" vertex="1" parent="1">
          <mxGeometry x="350" y="540" width="50" height="50" as="geometry" />
        </mxCell>
        <mxCell id="5o1GbZZzDzNnB3p3QDpV-12" value="" style="rounded=0;whiteSpace=wrap;html=1;" vertex="1" parent="1">
          <mxGeometry x="400" y="540" width="50" height="50" as="geometry" />
        </mxCell>
        <mxCell id="5o1GbZZzDzNnB3p3QDpV-13" value="" style="rounded=0;whiteSpace=wrap;html=1;" vertex="1" parent="1">
          <mxGeometry x="450" y="540" width="50" height="50" as="geometry" />
        </mxCell>
        <mxCell id="5o1GbZZzDzNnB3p3QDpV-14" value="&lt;p style=&quot;line-height: 0.5&quot;&gt;&lt;span style=&quot;font-size: 16px&quot;&gt;OS&lt;/span&gt;&lt;br&gt;&lt;span style=&quot;font-size: 16px&quot;&gt;message queue&lt;/span&gt;&lt;br&gt;&lt;/p&gt;" style="text;strokeColor=none;fillColor=none;html=1;fontSize=24;fontStyle=1;verticalAlign=middle;align=center;" vertex="1" parent="1">
          <mxGeometry x="270" y="470" width="210" height="80" as="geometry" />
        </mxCell>
        <mxCell id="5o1GbZZzDzNnB3p3QDpV-15" value="" style="rounded=0;whiteSpace=wrap;html=1;" vertex="1" parent="1">
          <mxGeometry x="200" y="800" width="350" height="50" as="geometry" />
        </mxCell>
        <mxCell id="5o1GbZZzDzNnB3p3QDpV-16" value="" style="rounded=0;whiteSpace=wrap;html=1;" vertex="1" parent="1">
          <mxGeometry x="200" y="800" width="50" height="50" as="geometry" />
        </mxCell>
        <mxCell id="5o1GbZZzDzNnB3p3QDpV-17" value="" style="rounded=0;whiteSpace=wrap;html=1;" vertex="1" parent="1">
          <mxGeometry x="250" y="800" width="50" height="50" as="geometry" />
        </mxCell>
        <mxCell id="5o1GbZZzDzNnB3p3QDpV-18" value="" style="rounded=0;whiteSpace=wrap;html=1;" vertex="1" parent="1">
          <mxGeometry x="300" y="800" width="50" height="50" as="geometry" />
        </mxCell>
        <mxCell id="5o1GbZZzDzNnB3p3QDpV-19" value="" style="rounded=0;whiteSpace=wrap;html=1;" vertex="1" parent="1">
          <mxGeometry x="350" y="800" width="50" height="50" as="geometry" />
        </mxCell>
        <mxCell id="5o1GbZZzDzNnB3p3QDpV-20" value="" style="rounded=0;whiteSpace=wrap;html=1;" vertex="1" parent="1">
          <mxGeometry x="400" y="800" width="50" height="50" as="geometry" />
        </mxCell>
        <mxCell id="5o1GbZZzDzNnB3p3QDpV-21" value="" style="rounded=0;whiteSpace=wrap;html=1;" vertex="1" parent="1">
          <mxGeometry x="450" y="800" width="50" height="50" as="geometry" />
        </mxCell>
        <mxCell id="5o1GbZZzDzNnB3p3QDpV-22" value="&lt;p style=&quot;line-height: 1 ; font-size: 15px&quot;&gt;Application&lt;br&gt;&lt;span&gt;message queue&lt;/span&gt;&lt;br&gt;&lt;/p&gt;" style="text;strokeColor=none;fillColor=none;html=1;fontSize=24;fontStyle=1;verticalAlign=middle;align=center;" vertex="1" parent="1">
          <mxGeometry x="275" y="830" width="200" height="80" as="geometry" />
        </mxCell>
        <mxCell id="5o1GbZZzDzNnB3p3QDpV-23" value="" style="endArrow=classic;html=1;rounded=0;fontSize=15;exitX=0.5;exitY=1;exitDx=0;exitDy=0;entryX=0.5;entryY=0;entryDx=0;entryDy=0;strokeColor=default;dashed=1;jumpSize=10;strokeWidth=2;" edge="1" parent="1" source="5o1GbZZzDzNnB3p3QDpV-11" target="5o1GbZZzDzNnB3p3QDpV-19">
          <mxGeometry width="50" height="50" relative="1" as="geometry">
            <mxPoint x="350" y="640" as="sourcePoint" />
            <mxPoint x="370" y="790" as="targetPoint" />
          </mxGeometry>
        </mxCell>
        <mxCell id="5o1GbZZzDzNnB3p3QDpV-25" value="消息" style="text;html=1;align=center;verticalAlign=middle;resizable=0;points=[];autosize=1;strokeColor=none;fillColor=none;fontSize=15;" vertex="1" parent="1">
          <mxGeometry x="315" y="670" width="50" height="20" as="geometry" />
        </mxCell>
        <mxCell id="5o1GbZZzDzNnB3p3QDpV-26" value="" style="shape=curlyBracket;whiteSpace=wrap;html=1;rounded=1;fontSize=15;" vertex="1" parent="1">
          <mxGeometry x="414" y="620" width="16" height="150" as="geometry" />
        </mxCell>
        <mxCell id="5o1GbZZzDzNnB3p3QDpV-27" value="钩子1" style="rounded=0;whiteSpace=wrap;html=1;fontSize=15;" vertex="1" parent="1">
          <mxGeometry x="470" y="630" width="80" height="30" as="geometry" />
        </mxCell>
        <mxCell id="5o1GbZZzDzNnB3p3QDpV-28" value="钩子2" style="rounded=0;whiteSpace=wrap;html=1;fontSize=15;" vertex="1" parent="1">
          <mxGeometry x="470" y="670" width="80" height="30" as="geometry" />
        </mxCell>
        <mxCell id="5o1GbZZzDzNnB3p3QDpV-29" value="钩子3" style="rounded=0;whiteSpace=wrap;html=1;fontSize=15;" vertex="1" parent="1">
          <mxGeometry x="470" y="710" width="80" height="30" as="geometry" />
        </mxCell>
        <mxCell id="5o1GbZZzDzNnB3p3QDpV-31" value="钩链" style="text;html=1;align=center;verticalAlign=middle;resizable=0;points=[];autosize=1;strokeColor=none;fillColor=none;fontSize=15;" vertex="1" parent="1">
          <mxGeometry x="485" y="600" width="50" height="20" as="geometry" />
        </mxCell>
        <mxCell id="5o1GbZZzDzNnB3p3QDpV-32" value="&lt;font style=&quot;font-size: 17px&quot;&gt;.&lt;br&gt;.&lt;br&gt;.&lt;/font&gt;" style="text;html=1;align=center;verticalAlign=middle;resizable=0;points=[];autosize=1;strokeColor=none;fillColor=none;fontSize=15;" vertex="1" parent="1">
          <mxGeometry x="500" y="730" width="20" height="60" as="geometry" />
        </mxCell>
      </root>
    </mxGraphModel>
  </diagram>
</mxfile>
